<svg width="24" height="24" viewBox="0 0 24 24" fill="none" xmlns="http://www.w3.org/2000/svg">
<path d="M6.25 12.4974C7.2165 12.4974 8 13.2809 8 14.2474V16.7474C8 17.7139 7.2165 18.4974 6.25 18.4974H3.75C2.7835 18.4974 2 17.7139 2 16.7474V14.2474C2 13.2809 2.7835 12.4974 3.75 12.4974H6.25ZM13.25 12.4974C14.2165 12.4974 15 13.2809 15 14.2474V16.7474C15 17.7139 14.2165 18.4974 13.25 18.4974H10.75C9.7835 18.4974 9 17.7139 9 16.7474V14.2474C9 13.2809 9.7835 12.4974 10.75 12.4974H13.25ZM20.25 12.4974C21.2165 12.4974 22 13.2809 22 14.2474V16.7474C22 17.7139 21.2165 18.4974 20.25 18.4974H17.75C16.7835 18.4974 16 17.7139 16 16.7474V14.2474C16 13.2809 16.7835 12.4974 17.75 12.4974H20.25ZM6.25 13.9974H3.75C3.61193 13.9974 3.5 14.1094 3.5 14.2474V16.7474C3.5 16.8855 3.61193 16.9974 3.75 16.9974H6.25C6.38807 16.9974 6.5 16.8855 6.5 16.7474V14.2474C6.5 14.1094 6.38807 13.9974 6.25 13.9974ZM13.25 13.9974H10.75C10.6119 13.9974 10.5 14.1094 10.5 14.2474V16.7474C10.5 16.8855 10.6119 16.9974 10.75 16.9974H13.25C13.3881 16.9974 13.5 16.8855 13.5 16.7474V14.2474C13.5 14.1094 13.3881 13.9974 13.25 13.9974ZM20.25 13.9974H17.75C17.6119 13.9974 17.5 14.1094 17.5 14.2474V16.7474C17.5 16.8855 17.6119 16.9974 17.75 16.9974H20.25C20.3881 16.9974 20.5 16.8855 20.5 16.7474V14.2474C20.5 14.1094 20.3881 13.9974 20.25 13.9974ZM7.96967 9.21967L11.4697 5.71967C11.7332 5.45612 12.1448 5.42936 12.4383 5.64131L12.5226 5.71206L16.1253 9.21206C16.4224 9.50068 16.4293 9.97551 16.1407 10.2726C15.8783 10.5427 15.462 10.5729 15.1653 10.3593L15.0801 10.2879L12.0076 7.30305L9.03033 10.2803C8.73744 10.5732 8.26256 10.5732 7.96967 10.2803C7.7034 10.0141 7.6792 9.5974 7.89705 9.30379L7.96967 9.21967L11.4697 5.71967L7.96967 9.21967Z" fill="#0078D4"/>
</svg>
