<svg width="25" height="25" viewBox="0 0 25 25" fill="none" xmlns="http://www.w3.org/2000/svg">
<path d="M4.65065 0.5H12.684C15.068 0.5 17.0007 2.43264 17.0007 4.81667V5C17.0007 5.46024 16.6276 5.83333 16.1673 5.83333C15.7071 5.83333 15.334 5.46024 15.334 5V4.81667C15.334 3.35311 14.1475 2.16667 12.684 2.16667H4.65065C3.1871 2.16667 2.00065 3.35311 2.00065 4.81667V12.85C2.00065 14.3136 3.1871 15.5 4.65065 15.5H12.3944C12.7079 13.7933 14.2033 12.5 16.0007 12.5C18.0257 12.5 19.6673 14.1416 19.6673 16.1667C19.6673 18.1917 18.0257 19.8333 16.0007 19.8333C14.3223 19.8333 12.9073 18.7057 12.472 17.1667H4.65065C2.26662 17.1667 0.333984 15.234 0.333984 12.85V4.81667C0.333984 2.43264 2.26662 0.5 4.65065 0.5ZM14.0007 16.1667C14.0007 17.2712 14.8961 18.1667 16.0007 18.1667C17.1052 18.1667 18.0007 17.2712 18.0007 16.1667C18.0007 15.0621 17.1052 14.1667 16.0007 14.1667C14.8961 14.1667 14.0007 15.0621 14.0007 16.1667ZM7.66732 20.3333V20C7.66732 19.5398 8.04041 19.1667 8.50065 19.1667C8.96089 19.1667 9.33398 19.5398 9.33398 20V20.3333C9.33398 21.714 10.4533 22.8333 11.834 22.8333H20.1673C21.548 22.8333 22.6673 21.714 22.6673 20.3333V12C22.6673 10.6193 21.548 9.5 20.1673 9.5H12.2735C11.96 11.2067 10.4647 12.5 8.66732 12.5C6.64227 12.5 5.00065 10.8584 5.00065 8.83333C5.00065 6.80829 6.64227 5.16667 8.66732 5.16667C10.3457 5.16667 11.7607 6.29433 12.196 7.83333H20.1673C22.4685 7.83333 24.334 9.69881 24.334 12V20.3333C24.334 22.6345 22.4685 24.5 20.1673 24.5H11.834C9.5328 24.5 7.66732 22.6345 7.66732 20.3333ZM8.66732 6.83333C7.56275 6.83333 6.66732 7.72876 6.66732 8.83333C6.66732 9.9379 7.56275 10.8333 8.66732 10.8333C9.77189 10.8333 10.6673 9.9379 10.6673 8.83333C10.6673 7.72876 9.77189 6.83333 8.66732 6.83333Z" fill="#0078D4"/>
</svg>
