<svg width="25" height="25" viewBox="0 0 25 25" fill="none" xmlns="http://www.w3.org/2000/svg">
<path d="M0.666016 4.83333C0.666016 2.4401 2.60612 0.5 4.99935 0.5H20.3327C22.7259 0.5 24.666 2.4401 24.666 4.83333V20.1667C24.666 22.5599 22.7259 24.5 20.3327 24.5H4.99935C2.60611 24.5 0.666016 22.5599 0.666016 20.1667V4.83333ZM4.99935 2.5C3.71068 2.5 2.66602 3.54467 2.66602 4.83333V5.16667H22.666V4.83333C22.666 3.54467 21.6213 2.5 20.3327 2.5H4.99935ZM2.66602 20.1667C2.66602 21.4553 3.71068 22.5 4.99935 22.5H20.3327C21.6213 22.5 22.666 21.4553 22.666 20.1667V7.16667H2.66602V20.1667ZM5.79935 9.16667H10.1993C10.8253 9.16667 11.3327 9.67408 11.3327 10.3V19.3667C11.3327 19.9926 10.8253 20.5 10.1993 20.5H5.79935C5.17343 20.5 4.66602 19.9926 4.66602 19.3667V10.3C4.66602 9.67407 5.17343 9.16667 5.79935 9.16667ZM6.66602 18.5H9.33268V11.1667H6.66602V18.5ZM12.666 10.1667C12.666 9.61438 13.1137 9.16667 13.666 9.16667H19.666C20.2183 9.16667 20.666 9.61438 20.666 10.1667C20.666 10.719 20.2183 11.1667 19.666 11.1667H13.666C13.1137 11.1667 12.666 10.719 12.666 10.1667ZM13.666 13.1667C13.1137 13.1667 12.666 13.6144 12.666 14.1667C12.666 14.719 13.1137 15.1667 13.666 15.1667H18.3327C18.885 15.1667 19.3327 14.719 19.3327 14.1667C19.3327 13.6144 18.885 13.1667 18.3327 13.1667H13.666Z" fill="#0078D4"/>
</svg>
