<svg width="24" height="25" viewBox="0 0 24 25" fill="none" xmlns="http://www.w3.org/2000/svg">
<path d="M12.1129 2.12168C8.88107 2.12168 6.26114 4.73546 6.26114 7.95972C6.26114 9.52666 6.87992 10.9494 7.88699 11.998V12.2755C7.23972 12.119 6.58876 12.104 5.96786 12.2109C5.12795 11.0048 4.63565 9.53962 4.63565 7.95972C4.63565 3.83983 7.98334 0.5 12.1129 0.5C16.2425 0.5 19.5902 3.83983 19.5902 7.95972C19.5902 8.94012 19.4006 9.87635 19.056 10.7339C18.991 10.7173 18.9253 10.7018 18.8589 10.6876L17.4382 10.3834C17.7763 9.64514 17.9647 8.82438 17.9647 7.95972C17.9647 4.73546 15.3448 2.12168 12.1129 2.12168ZM10.8126 7.95972C10.8126 7.24322 11.3948 6.66238 12.113 6.66238C12.8312 6.66238 13.4134 7.24322 13.4134 7.95972V11.8517C13.4134 12.234 13.681 12.5643 14.0556 12.6445L18.2446 13.5416C19.4318 13.7959 20.1606 14.9937 19.8386 16.1618L18.3465 21.5759C18.2236 22.0217 17.8421 22.3486 17.3818 22.4024L13.3227 22.8768C13.2886 22.8808 13.2421 22.8747 13.1825 22.8364C13.1194 22.7957 13.0552 22.7259 13.0128 22.6352C12.0798 20.6424 9.69934 18.4749 5.02049 16.3301C5.3375 15.3579 6.41399 14.8112 7.40982 15.1769L9.71915 16.0249C9.96849 16.1164 10.2469 16.0806 10.4649 15.929C10.6828 15.7773 10.8126 15.529 10.8126 15.2639V7.95972ZM12.113 5.0407C10.4971 5.0407 9.18713 6.34759 9.18713 7.95972V14.1015L7.97128 13.655C5.93075 12.9058 3.71021 14.1923 3.35129 16.3318C3.25546 16.9031 3.5658 17.4536 4.0786 17.6842C8.82028 19.8162 10.8374 21.8207 11.54 23.3215C11.8579 24.0004 12.5956 24.5945 13.5119 24.4874L17.5709 24.013C18.6887 23.8824 19.6155 23.0884 19.9138 22.0058L21.406 16.5917C21.9755 14.5251 20.6862 12.4059 18.5858 11.9561L15.0389 11.1965V7.95972C15.0389 6.34759 13.7289 5.0407 12.113 5.0407Z" fill="#0078D4"/>
</svg>
