<svg width="24" height="24" viewBox="0 0 24 24" fill="none" xmlns="http://www.w3.org/2000/svg">
<path d="M15.2963 15.8965C16.4558 15.8965 17.3958 16.8365 17.3958 17.996L17.3945 19.1502C17.5345 21.7765 15.5818 23.1057 12.0772 23.1057C8.58737 23.1057 6.59841 21.7982 6.59841 19.1957V17.996C6.59841 16.8365 7.53839 15.8965 8.69791 15.8965H15.2963ZM15.2963 17.6961H8.69791C8.53226 17.6961 8.39798 17.8304 8.39798 17.996V19.1957C8.39798 20.6068 9.46173 21.3061 12.0772 21.3061C14.6781 21.3061 15.6713 20.6301 15.5963 19.1981V17.996C15.5963 17.8304 15.462 17.6961 15.2963 17.6961ZM2.0995 9.89798L7.34943 9.89808C7.25075 10.2815 7.19827 10.6835 7.19827 11.0977C7.19827 11.3006 7.21086 11.5005 7.23531 11.6968L2.0995 11.6975C1.93385 11.6975 1.79957 11.8318 1.79957 11.9975V13.1972C1.79957 14.6083 2.86331 15.3075 5.47883 15.3075C6.03298 15.3075 6.51415 15.2768 6.92755 15.2147C6.24951 15.6442 5.74117 16.3152 5.52014 17.1061L5.47883 17.1071C1.98896 17.1071 0 15.7996 0 13.1972V11.9975C0 10.838 0.939976 9.89798 2.0995 9.89798ZM21.8947 9.89798C23.0543 9.89798 23.9942 10.838 23.9942 11.9975L23.993 13.1517C24.1329 15.778 22.1802 17.1071 18.6757 17.1071L18.4738 17.105C18.2465 16.2927 17.7161 15.6071 17.0123 15.1776C17.4761 15.2647 18.0284 15.3075 18.6757 15.3075C21.2765 15.3075 22.2697 14.6315 22.1947 13.1996V11.9975C22.1947 11.8318 22.0604 11.6975 21.8947 11.6975L16.759 11.6966C16.7834 11.5004 16.796 11.3005 16.796 11.0977C16.796 10.6835 16.7435 10.2815 16.6448 9.89808L21.8947 9.89798ZM11.9971 7.49856C13.9849 7.49856 15.5963 9.10995 15.5963 11.0977C15.5963 13.0854 13.9849 14.6968 11.9971 14.6968C10.0094 14.6968 8.39798 13.0854 8.39798 11.0977C8.39798 9.10995 10.0094 7.49856 11.9971 7.49856ZM11.9971 9.29813C11.0032 9.29813 10.1975 10.1038 10.1975 11.0977C10.1975 12.0916 11.0032 12.8973 11.9971 12.8973C12.991 12.8973 13.7967 12.0916 13.7967 11.0977C13.7967 10.1038 12.991 9.29813 11.9971 9.29813ZM5.3987 1.5C7.38645 1.5 8.99784 3.11139 8.99784 5.09914C8.99784 7.08688 7.38645 8.69827 5.3987 8.69827C3.41096 8.69827 1.79957 7.08688 1.79957 5.09914C1.79957 3.11139 3.41096 1.5 5.3987 1.5ZM18.5955 1.5C20.5833 1.5 22.1947 3.11139 22.1947 5.09914C22.1947 7.08688 20.5833 8.69827 18.5955 8.69827C16.6078 8.69827 14.9964 7.08688 14.9964 5.09914C14.9964 3.11139 16.6078 1.5 18.5955 1.5ZM5.3987 3.29957C4.40483 3.29957 3.59914 4.10526 3.59914 5.09914C3.59914 6.09301 4.40483 6.8987 5.3987 6.8987C6.39258 6.8987 7.19827 6.09301 7.19827 5.09914C7.19827 4.10526 6.39258 3.29957 5.3987 3.29957ZM18.5955 3.29957C17.6017 3.29957 16.796 4.10526 16.796 5.09914C16.796 6.09301 17.6017 6.8987 18.5955 6.8987C19.5894 6.8987 20.3951 6.09301 20.3951 5.09914C20.3951 4.10526 19.5894 3.29957 18.5955 3.29957Z" fill="#0078D4"/>
</svg>
